<svg xmlns="http://www.w3.org/2000/svg" id="Layer_2" data-name="Layer 2" viewBox="0 0 400.01 336.76"><defs><style>      .cls-1 {        fill: #bff009;      }    </style></defs><g id="Layer_2-2" data-name="Layer 2"><g id="Art"><g><path class="cls-1" d="M203.84,186.15l70.68,70.68c2.12,2.12,2.12,5.55,0,7.66l-70.68,70.68c-2.12,2.12-5.55,2.12-7.66,0l-70.68-70.68c-2.12-2.12-2.12-5.55,0-7.66l70.68-70.68c2.12-2.12,5.55-2.12,7.66,0h0Z"></path><path class="cls-1" d="M132.03,64.35L189.44,6.94c2.56-2.56.75-6.94-2.87-6.94h-115.44c-1.44,0-2.81.57-3.83,1.59L6.36,62.48c-8.45,8.45-8.48,22.14-.05,30.61l61.69,62.05c1.02,1.02,2.4,1.6,3.84,1.6h115.95c3.62,0,5.43-4.38,2.87-6.94l-58.63-58.63c-7.41-7.41-7.41-19.41,0-26.82h0Z"></path><path class="cls-1" d="M267.99,64.35L210.58,6.94c-2.56-2.56-.75-6.94,2.87-6.94h115.44c1.44,0,2.81.57,3.83,1.59l60.94,60.89c8.45,8.45,8.48,22.14.05,30.61l-61.69,62.05c-1.02,1.02-2.4,1.6-3.84,1.6h-115.95c-3.62,0-5.43-4.38-2.87-6.94l58.63-58.63c7.41-7.41,7.41-19.41,0-26.82h0Z"></path></g></g></g></svg>