<?xml version="1.0" encoding="UTF-8"?>
<svg id="Layer_2" data-name="Layer 2" xmlns="http://www.w3.org/2000/svg" viewBox="0 0 400 336.75">
  <defs>
    <style>
      .cls-1 {
        fill: #0e1821;
        stroke-width: 0px;
      }
    </style>
  </defs>
  <g id="Art">
    <g>
      <path class="cls-1" d="M200,189.98l70.68,70.68-70.68,70.68-70.68-70.68,70.67-70.68s0,0,0,0h0M200,184.56c-1.39,0-2.77.53-3.83,1.59l-70.68,70.68c-2.12,2.12-2.12,5.55,0,7.66l70.68,70.68c1.06,1.06,2.44,1.59,3.83,1.59s2.77-.53,3.83-1.59l70.68-70.68c2.12-2.12,2.12-5.55,0-7.66l-70.68-70.68c-1.06-1.06-2.44-1.59-3.83-1.59h0Z"/>
      <path class="cls-1" d="M183.29,5.42l-55.1,55.1c-9.51,9.51-9.51,24.98,0,34.48l56.32,56.32h-112.68L10.15,89.27c-6.3-6.34-6.29-16.64.04-22.96L71.12,5.42h112.16M186.56,0h-115.44c-1.44,0-2.81.57-3.83,1.59L6.35,62.48c-8.45,8.45-8.48,22.14-.05,30.61l61.69,62.05c1.02,1.02,2.4,1.6,3.84,1.6h115.95c3.62,0,5.43-4.38,2.87-6.94l-58.63-58.63c-7.41-7.41-7.41-19.41,0-26.82L189.43,6.94c2.56-2.56.75-6.94-2.87-6.94h0Z"/>
      <path class="cls-1" d="M328.88,5.42h0s60.94,60.89,60.94,60.89c6.32,6.32,6.34,16.62.04,22.96l-61.69,62.05h-112.68l56.32-56.32c9.51-9.51,9.51-24.98,0-34.48L216.71,5.42h112.16M328.88,0h-115.44c-3.62,0-5.43,4.38-2.87,6.94l57.41,57.41c7.41,7.41,7.41,19.41,0,26.82l-58.63,58.63c-2.56,2.56-.75,6.94,2.87,6.94h115.95c1.44,0,2.83-.58,3.84-1.6l61.69-62.05c8.42-8.47,8.4-22.17-.05-30.61L332.71,1.59c-1.02-1.02-2.39-1.59-3.83-1.59h0Z"/>
    </g>
  </g>
</svg>