<svg xmlns="http://www.w3.org/2000/svg" id="Layer_2" data-name="Layer 2" viewBox="0 0 29 29"><defs><style>      .cls-1 {        fill: #062f2b;      }      .cls-2 {        fill: #c0d72f;        fill-rule: evenodd;      }    </style></defs><g id="Layer_1-2" data-name="Layer 1"><circle class="cls-1" cx="14.5" cy="14.5" r="14.5"></circle><path class="cls-2" d="M16.11,7.32c.25-.25.59-.4.94-.41.35-.02.7.1.97.33l.09.08.5.5c.25.25.4.59.41.94.02.35-.1.7-.33.97l-.08.09-.5.5s-.09.08-.14.12c.06.22.07.46.02.68s-.15.44-.3.61l-.08.09-.7.7c.49.43.88.96,1.14,1.56.27.59.41,1.24.4,1.89,0,1.16-.43,2.23-1.14,3.04l-.14.15h1.99c.18,0,.35.07.49.19.13.12.21.29.22.47s-.05.36-.16.5c-.12.14-.28.23-.46.25h-.08s-11.33,0-11.33,0c-.18,0-.35-.07-.49-.19-.13-.12-.21-.29-.22-.47-.01-.18.05-.36.16-.5.12-.14.28-.23.46-.25h.08s6.02,0,6.02,0c.64,0,1.26-.19,1.79-.55.53-.36.94-.87,1.17-1.46.23-.59.29-1.25.15-1.87-.14-.62-.47-1.19-.93-1.63l-.13-.11-2.3,2.3c-.25.25-.59.4-.94.41-.35.02-.7-.1-.97-.33l-.09-.08-1.5-1.5c-.25-.25-.4-.59-.41-.94s.1-.7.33-.97l.08-.09,4.01-4.01c.18-.18.4-.3.64-.37.24-.06.5-.06.74,0l.06-.07.06-.07.5-.5ZM9.6,14.84l1.5,1.5c.07.07.12.14.16.23.04.09.06.18.06.27,0,.09-.02.19-.05.27-.04.09-.09.17-.15.23-.07.07-.15.12-.23.15-.09.04-.18.05-.27.05-.09,0-.19-.02-.27-.06-.09-.04-.16-.09-.23-.16l-1.5-1.5c-.07-.07-.12-.14-.15-.23-.04-.09-.05-.18-.05-.27,0-.09.02-.19.05-.27.04-.09.09-.16.15-.23.07-.07.14-.12.23-.15.09-.04.18-.05.27-.05.09,0,.19.02.27.05.09.04.16.09.23.15ZM17.11,8.33l-.5.5.5.5.5-.5-.5-.5Z"></path></g></svg>