<svg xmlns="http://www.w3.org/2000/svg" id="Layer_2" data-name="Layer 2" viewBox="0 0 28.88 28.87"><defs><style>      .cls-1 {        fill: #555;      }    </style></defs><g id="Layer_1-2" data-name="Layer 1"><path class="cls-1" d="M28.88,8.79v-2.39l-.28-.67L23.15.28l-.67-.28h-2.39l-.67.28-4.45,4.45c-.3.3-.78.3-1.07,0L9.45.28l-.67-.28h-2.39l-.67.28L.28,5.73l-.28.67v2.39l.28.67,4.45,4.45c.3.3.3.78,0,1.07L.28,19.42l-.28.67v2.39l.28.67,5.45,5.45.67.28h2.39l.67-.28,4.45-4.45c.3-.3.78-.3,1.07,0l4.45,4.45.67.28h2.39l.67-.28,5.45-5.45.28-.67v-2.39l-.28-.67-4.45-4.45c-.3-.3-.3-.78,0-1.07l4.45-4.45.28-.67h0ZM9.71,15.22l5.5-5.5h1.01l2.93,2.93v1.01l-5.5,5.5h-1.01l-2.93-2.93v-1.01ZM1.89,6.78L6.78,1.89h1.61l5.6,5.6c.21.21.21.56,0,.77l-5.74,5.74c-.21.21-.56.21-.77,0L1.89,8.4v-1.61ZM8.4,26.99h-1.61l-4.9-4.9v-1.61l4.21-4.21c.27-.27.72-.27,1,0l5.51,5.51c.27.27.27.72,0,1l-4.21,4.21h0ZM26.99,22.09l-4.9,4.9h-1.61l-5.6-5.6c-.21-.21-.21-.56,0-.77l5.74-5.74c.21-.21.56-.21.77,0l5.6,5.6v1.61h0ZM26.99,8.4l-4.21,4.21c-.27.27-.72.27-1,0l-5.51-5.51c-.27-.27-.27-.72,0-1l4.21-4.21h1.61l4.9,4.9v1.61h0Z"></path><path class="cls-1" d="M4.32,6.83l-.39.39v1.01l.39.39h1.01l.39-.39v-1.01l-.39-.39h-1.01Z"></path><path class="cls-1" d="M8.2,5.73l.39-.39v-1.01l-.39-.39h-1.01l-.39.39v1.01l.39.39h1.01Z"></path><path class="cls-1" d="M7.9,11.18l.39-.39v-1.01l-.39-.39h-1.01l-.39.39v1.01l.39.39h1.01Z"></path><path class="cls-1" d="M10.77,8.3l.39-.39v-1.01l-.39-.39h-1.01l-.39.39v1.01l.39.39h1.01Z"></path><path class="cls-1" d="M20.65,23.16l-.39.39v1.01l.39.39h1.01l.39-.39v-1.01l-.39-.39h-1.01Z"></path><path class="cls-1" d="M24.54,22.07l.39-.39v-1.01l-.39-.39h-1.01l-.39.39v1.01l.39.39h1.01Z"></path><path class="cls-1" d="M18.08,20.59l-.39.39v1.01l.39.39h1.01l.39-.39v-1.01l-.39-.39h-1.01Z"></path><path class="cls-1" d="M20.96,17.71l-.39.39v1.01l.39.39h1.01l.39-.39v-1.01l-.39-.39h-1.01Z"></path><path class="cls-1" d="M24.68,8.16l.39-.39v-1.01l-.39-.39h-1.01l-.39.39v1.01l.39.39h1.01Z"></path><path class="cls-1" d="M20.71,4.19v1.01l.39.39h1.01l.39-.39v-1.01l-.39-.39h-1.01l-.39.39Z"></path><path class="cls-1" d="M21.39,8.66l-.39.39v1.01l.39.39h1.01l.39-.39v-1.01l-.39-.39h-1.01Z"></path><path class="cls-1" d="M18.82,6.09l-.39.39v1.01l.39.39h1.01l.39-.39v-1.01l-.39-.39h-1.01Z"></path><path class="cls-1" d="M6.76,23.29l-.39.39v1.01l.39.39h1.01l.39-.39v-1.01l-.39-.39h-1.01Z"></path><path class="cls-1" d="M4.19,20.71l-.39.39v1.01l.39.39h1.01l.39-.39v-1.01l-.39-.39h-1.01Z"></path><path class="cls-1" d="M10.06,22.79l.39-.39v-1.01l-.39-.39h-1.01l-.39.39v1.01l.39.39h1.01Z"></path><path class="cls-1" d="M6.48,18.43l-.39.39v1.01l.39.39h1.01l.39-.39v-1.01l-.39-.39h-1.01Z"></path></g></svg>