<svg xmlns="http://www.w3.org/2000/svg" id="Layer_2" data-name="Layer 2" viewBox="0 0 19.62 28.87"><defs><style>      .cls-1 {        fill: #555;      }    </style></defs><g id="Layer_1-2" data-name="Layer 1"><path class="cls-1" d="M17.16,6.75h-5.23c-.16,0-.23-.19-.12-.3l2.82-2.82c.16-.16.44-.05.44.18v1.65h1.87V.93l-.93-.93h-4.54v1.87h1.65c.23,0,.35.28.18.44l-6.89,6.9v.83c0,.34-.28.62-.62.62h-3.34l-2.46,2.46v6.18l2.46,2.46h2.76c.25,0,.44.2.45.44v2.18s-3.34,0-3.34,0v1.87h3.35v2.63s1.88,0,1.88,0v-2.63s3.33,0,3.33,0v-1.87h-3.34v-2.17c0-.25.19-.45.44-.45h2.77l2.46-2.46v-.83c0-.34.28-.62.62-.62h3.34l2.46-2.46v-6.18l-2.46-2.46h0ZM11.33,18.51l-1.19,1.19c-.11.11-.25.17-.41.17H3.47c-.15,0-.3-.06-.41-.17l-1.03-1.03c-.11-.11-.17-.25-.17-.41v-4.15c0-.15.06-.3.17-.41l1.03-1.03c.11-.11.25-.17.41-.17h2.94v2.86l2.46,2.46h2.46v.67ZM11.06,15.97h-1.29c-.07,0-.15-.03-.2-.08l-1.2-1.2c-.05-.05-.08-.12-.08-.2v-1.7c0-.15.12-.28.28-.28h1.29c.07,0,.15.03.2.08l1.2,1.2c.05.05.08.12.08.2v1.7c0,.15-.12.28-.28.28ZM17.58,14.78l-1.03,1.03c-.11.11-.25.17-.41.17h-2.94v-2.86l-2.46-2.46h-2.46v-.67l1.19-1.19c.11-.11.25-.17.41-.17h6.26c.15,0,.3.06.41.17l1.03,1.03c.11.11.17.25.17.41v4.15c0,.15-.06.3-.17.41h0Z"></path></g></svg>