<svg xmlns="http://www.w3.org/2000/svg" xmlns:xlink="http://www.w3.org/1999/xlink" id="Layer_2" data-name="Layer 2" viewBox="0 0 30 30"><defs><style>      .cls-1 {        fill: none;      }      .cls-2 {        fill: #012b27;      }      .cls-3 {        clip-path: url(#clippath);      }    </style><clipPath id="clippath"><rect class="cls-1" width="30" height="30"></rect></clipPath></defs><g id="Layer_1-2" data-name="Layer 1"><g class="cls-3"><g><path class="cls-2" d="M28.74,8.84l-3.06-1.83-.69-2.86c-.31-1.27-1.48-2.11-2.77-2.01l-3.5.27-2.01-1.78c-.99-.84-2.43-.84-3.42,0l-2.01,1.78-3.5-.27c-1.27-.09-2.46.74-2.73,1.91-.06.18-1.08,3.36-1.01,3.15l-2.77,1.64c-1.11.68-1.55,2.05-1.06,3.25l1.2,2.9-1.19,2.9c-.5,1.2-.05,2.57,1.06,3.25l3.06,1.82.69,2.87c.3,1.27,1.47,2.11,2.77,2.01l3.47-.27,2.05,1.8c.5.42,1.1.63,1.71.63s1.21-.21,1.71-.63l2.05-1.8,3.47.27c1.31.1,2.46-.74,2.77-2.01l.69-2.86,3.06-1.83c1.11-.68,1.55-2.05,1.06-3.25l-1.2-2.9,1.2-2.9c.5-1.2.05-2.57-1.06-3.25ZM15,24.67c-5.33,0-9.67-4.34-9.67-9.67S9.67,5.33,15,5.33s9.67,4.34,9.67,9.67-4.34,9.67-9.67,9.67Z"></path><path class="cls-2" d="M15,7.09c-4.36,0-7.91,3.55-7.91,7.91s3.55,7.91,7.91,7.91,7.91-3.55,7.91-7.91-3.55-7.91-7.91-7.91ZM20.02,12.98l-5.27,5.27c-.17.17-.4.26-.62.26s-.45-.09-.62-.26l-3.52-3.52c-.34-.34-.34-.9,0-1.24.34-.34.9-.34,1.24,0l2.89,2.89,4.65-4.65c.34-.34.9-.34,1.24,0s.34.9,0,1.24Z"></path></g></g></g></svg>