<svg xmlns="http://www.w3.org/2000/svg" id="Layer_2" data-name="Layer 2" viewBox="0 0 25.98 28.17"><defs><style>      .cls-1 {        fill: #555;      }    </style></defs><g id="Layer_1-2" data-name="Layer 1"><path class="cls-1" d="M17.73,5.13l-.58-.24h-8.32l-.58.24-2.21,2.21-.24.58v6.25l.24.58,2.21,2.21.58.24h8.32l.58-.24,2.21-2.21.24-.58v-6.25l-.24-.58-2.21-2.21ZM18.54,13.43c0,.26-.1.51-.29.7l-1.15,1.15c-.18.18-.43.29-.7.29h-1.37l-2.63-5.47c-.54-.19-.84-.29-1.38-.48-.19.54-.29.84-.48,1.38l2.2,4.57h-3.18c-.26,0-.51-.1-.7-.29l-1.15-1.15c-.18-.18-.29-.43-.29-.7v-4.76c0-.26.1-.51.29-.7l1.15-1.15c.18-.18.43-.29.7-.29h6.83c.26,0,.51.1.7.29l1.15,1.15c.18.18.29.43.29.7v4.76h0Z"></path><path class="cls-1" d="M25.16,0H.82l-.82.82v26.53l.82.82h24.34l.82-.82V.82l-.82-.82h0ZM24.34,25.54c0,.54-.44.98-.98.98H2.63c-.54,0-.98-.44-.98-.98V2.63c0-.54.44-.98.98-.98h20.73c.54,0,.98.44.98.98v22.92h0Z"></path><path class="cls-1" d="M18.54,21H7.44v1.64h11.1v-1.64Z"></path></g></svg>