<svg xmlns="http://www.w3.org/2000/svg" id="Layer_2" data-name="Layer 2" viewBox="0 0 23.16 28.68"><defs><style>      .cls-1 {        fill: #555;      }    </style></defs><g id="Layer_1-2" data-name="Layer 1"><path class="cls-1" d="M12.07,28.68h-1.86v-6.65c0-.44.36-.8.8-.8l5.03.02c.34,0,.66-.13.9-.37l.88-.88c.24-.24.37-.56.37-.9v-3.59c0-.44.36-.8.8-.8h1.94l-2.66-7.1v-2.98c0-.34-.13-.66-.37-.89l-1.52-1.52c-.24-.24-.56-.37-.89-.37H5.16c-.34,0-.66.13-.89.37l-2.04,2.04c-.24.24-.37.56-.37.89v20.4H0V3.87L3.87,0h12.91l3.35,3.35v3.94l3.04,8.12-.81,1.17h-2.3v3.83l-2.72,2.71-5.26-.02v5.59Z"></path><path class="cls-1" d="M14.58,10.14v2.33h-2.23c-.39,0-.7.31-.7.7v2.23h-2.33v-2.23c0-.39-.31-.7-.7-.7h-2.23v-2.33h2.23c.39,0,.7-.31.7-.7v-2.23h2.33v2.23c0,.39.31.7.7.7h2.23Z"></path></g></svg>