<svg xmlns="http://www.w3.org/2000/svg" id="Layer_2" data-name="Layer 2" viewBox="0 0 22.29 28.87"><defs><style>      .cls-1 {        fill: #555;      }    </style></defs><g id="Layer_1-2" data-name="Layer 1"><path class="cls-1" d="M22.29,14.99l-5.4-5.4h-1.3c-.29-.01-.52-.24-.52-.53V1.14l-1.14-1.14h-5.56l-1.14,1.14v7.92c0,.29-.23.52-.52.52h-1.28S.02,14.98.02,14.98l-.02,13.51c0,.21.17.38.38.38h.98c.21,0,.38-.17.38-.38v-9.01c0-.22.18-.4.4-.4h1.58c.22,0,.4.18.4.4v9.01c0,.21.17.38.38.38h.98c.21,0,.38-.17.38-.38v-9.01c0-.22.18-.4.4-.4h1.58c.22,0,.4.18.4.4v9.01c0,.21.17.38.38.38h.98c.21,0,.38-.17.38-.38v-9.01c0-.22.18-.4.4-.4h1.58c.22,0,.4.18.4.4v9.01c0,.21.17.38.38.38h.98c.21,0,.38-.17.38-.38v-9.01c0-.22.18-.4.4-.4h1.58c.22,0,.4.18.4.4v9.01c0,.21.17.38.38.38h.98c.21,0,.38-.17.38-.38v-9.01c0-.22.18-.4.4-.4h1.58c.22,0,.4.18.4.4v9.01c0,.21.17.38.38.38h.98c.21,0,.38-.17.38-.38l-.02-13.5h.01ZM1.92,15.54l4.05-4.04c.11-.11.27-.18.42-.18h2.03c.3-.01.54-.25.54-.55V1.86l.12-.12h4.12l.12.12v8.91c0,.3.24.54.54.54l2.04.02c.16,0,.31.06.42.18l4.04,4.04c.11.11.18.27.18.42v.77c.01.34-.26.61-.6.61H2.34c-.34,0-.61-.28-.61-.61v-.78c0-.16.07-.31.19-.42h0Z"></path><path class="cls-1" d="M10.69,2.93l-.36.36v2.89l.36.36h.93l.36-.36v-2.89l-.36-.36h-.93Z"></path></g></svg>