<svg xmlns="http://www.w3.org/2000/svg" id="Layer_2" data-name="Layer 2" viewBox="0 0 27.54 28.87"><defs><style>      .cls-1 {        fill: #555;      }    </style></defs><g id="Layer_1-2" data-name="Layer 1"><path class="cls-1" d="M27.54,15.21v-1.63h-1.78c-.37,0-.7-.2-.89-.51l-1.83-3.17c-.2-.35-.2-.79,0-1.14l1.71-2.96-1.41-.81-1.74,3.02c-.18.32-.52.51-.89.51h-3.74c-.37,0-.7-.2-.89-.51l-1.86-3.22c-.18-.32-.18-.71,0-1.02l1.7-2.95-1.41-.81-1.99,3.45h-4.33c-.37,0-.7-.2-.89-.51l-.89-1.54-1.41.81.89,1.54c.18.32.18.71,0,1.02l-1.87,3.23c-.18.32-.52.51-.89.51H0v1.63h3.14c.37,0,.7.2.89.51l1.86,3.23c.18.32.18.71,0,1.02l-1.87,3.23c-.18.32-.52.51-.89.51H.11v1.63h2.98c.4,0,.77.21.96.56l1.81,3.14c.2.34.2.77,0,1.11l-.71,1.23,1.41.81.74-1.28c.18-.32.52-.51.89-.51h3.74c.37,0,.7.2.89.51l1.74,3.01,1.41-.81-1.74-3.02c-.18-.32-.18-.71,0-1.02l1.86-3.22c.18-.32.52-.51.89-.51h3.74c.37,0,.7.2.89.51l1.75,3.03,1.41-.81-1.75-3.03c-.18-.32-.18-.71,0-1.02l1.86-3.23c.18-.32.52-.51.89-.51h1.78ZM11.76,13.58h-3.42c-.46,0-.89-.25-1.12-.65l-1.71-2.96c-.23-.4-.23-.89,0-1.29l1.71-2.96c.23-.4.66-.65,1.12-.65h3.42c.46,0,.89.25,1.12.65l1.71,2.96c.23.4.23.89,0,1.29l-1.71,2.96c-.23.4-.66.65-1.12.65h0ZM11.76,23.72h-3.42c-.46,0-.89-.25-1.12-.65l-1.71-2.96c-.23-.4-.23-.89,0-1.29l1.71-2.96c.23-.4.66-.65,1.12-.65h3.42c.46,0,.89.25,1.12.65l1.71,2.96c.23.4.23.89,0,1.29l-1.71,2.96c-.23.4-.66.65-1.12.65ZM20.55,18.65h-3.42c-.46,0-.89-.25-1.12-.65l-1.71-2.96c-.23-.4-.23-.89,0-1.29l1.71-2.96c.23-.4.66-.65,1.12-.65h3.42c.46,0,.89.25,1.12.65l1.71,2.96c.23.4.23.89,0,1.29l-1.71,2.96c-.23.4-.66.65-1.12.65Z"></path></g></svg>