<svg xmlns="http://www.w3.org/2000/svg" id="Layer_2" data-name="Layer 2" viewBox="0 0 16.44 28.88"><defs><style>      .cls-1 {        fill: #555;      }    </style></defs><g id="Layer_1-2" data-name="Layer 1"><path class="cls-1" d="M12.3,0H4.14L0,4.14v12.44l4.14,4.14h1.34c.3,0,.53.26.5.55l-.64,6.35,1.26,1.26h3.12l1.26-1.26-.64-6.35c-.03-.3.2-.55.5-.55h1.46l4.14-4.14V4.14L12.3,0ZM7.43,23.37h1.46l.11,1.13h-1.69l.11-1.13ZM9.03,27.22h-1.75l-.22-.22.08-.84h2.02l.08.84-.22.22h0ZM8.72,21.71h-1.13l.1-.99h.93l.1.99h0ZM14.42,16.26l-2.44,2.44c-.23.23-.55.36-.88.36h-5.77c-.33,0-.64-.13-.88-.36l-2.44-2.44c-.23-.23-.36-.55-.36-.88V5.34c0-.33.13-.64.36-.88l2.44-2.44c.23-.23.55-.36.88-.36h5.77c.33,0,.64.13.88.36l2.44,2.44c.23.23.36.55.36.88v10.04c0,.33-.13.64-.36.88Z"></path><path class="cls-1" d="M6.11,5.5l-2.78,2.78,1.17,1.17,2.78-2.78-1.17-1.17Z"></path><path class="cls-1" d="M11.9,11.29l-2.78,2.78,1.17,1.17,2.78-2.78-1.17-1.17Z"></path><path class="cls-1" d="M12.1,5.31L3.17,14.24l1.17,1.17L13.27,6.48l-1.17-1.17Z"></path></g></svg>