<svg xmlns="http://www.w3.org/2000/svg" id="Layer_2" data-name="Layer 2" viewBox="0 0 520 78.82"><defs><style>      .cls-1 {        fill: #fff;        stroke-width: 0px;      }    </style></defs><g id="Art"><g><g><path class="cls-1" d="M47.71,43.57l16.54,16.54c.5.5.5,1.3,0,1.79l-16.54,16.54c-.5.5-1.3.5-1.79,0l-16.54-16.54c-.5-.5-.5-1.3,0-1.79l16.54-16.54c.5-.5,1.3-.5,1.79,0Z"></path><path class="cls-1" d="M30.9,15.06L44.34,1.62c.6-.6.17-1.62-.67-1.62h-27.02c-.34,0-.66.13-.9.37L1.49,14.62c-1.98,1.98-1.98,5.18-.01,7.17l14.44,14.52c.24.24.56.37.9.37h27.14c.85,0,1.27-1.02.67-1.62l-13.72-13.72c-1.73-1.73-1.73-4.54,0-6.28Z"></path><path class="cls-1" d="M62.72,15.06L49.28,1.62C48.69,1.02,49.11,0,49.96,0h27.02c.34,0,.66.13.9.37l14.26,14.25c1.98,1.98,1.98,5.18.01,7.17l-14.44,14.52c-.24.24-.56.37-.9.37h-27.14c-.85,0-1.27-1.02-.67-1.62l13.72-13.72c1.73-1.73,1.73-4.54,0-6.28Z"></path></g><g><path class="cls-1" d="M141.51,53.46h.72l11.66-36.82c.1-.32.39-.53.73-.53h9.99c.52,0,.89.51.72,1.01l-15.4,45.07c-.11.31-.4.52-.72.52h-14.76c-.32,0-.61-.21-.72-.51l-15.67-45.07c-.17-.5.2-1.01.72-1.01h9.99c.33,0,.62.21.72.53l12.02,36.82Z"></path><path class="cls-1" d="M171.8,16.11h9.37c.42,0,.76.34.76.76v45.07c0,.42-.34.76-.76.76h-9.37c-.42,0-.76-.34-.76-.76V16.87c0-.42.34-.76.76-.76Z"></path><path class="cls-1" d="M203.22,25.43h-15.3c-.42,0-.76-.34-.76-.76v-7.79c0-.42.34-.76.76-.76h41.56c.42,0,.76.34.76.76v7.79c0,.42-.34.76-.76.76h-15.37v36.52c0,.42-.34.76-.76.76h-9.37c-.42,0-.76-.34-.76-.76V25.43Z"></path><path class="cls-1" d="M259.51,53.68h-18.54c-.33,0-.62.21-.72.53l-2.6,7.98c-.1.31-.39.53-.72.53h-9.57c-.52,0-.89-.51-.72-1.01l15.33-45.07c.11-.31.4-.52.72-.52h15.25c.33,0,.62.21.72.52l15.19,45.07c.17.49-.2,1.01-.72,1.01h-9.57c-.33,0-.62-.21-.72-.53l-2.6-7.98c-.1-.31-.39-.53-.72-.53ZM243.22,45.07h14.05l-6.52-20.14h-1l-6.52,20.14Z"></path><path class="cls-1" d="M331.31,62.71h-32.36c-.42,0-.76-.34-.76-.76V16.87c0-.42.34-.76.76-.76h32.29c5.88,0,7.89,3.01,7.89,8.24v8.67c0,2.1-.45,3.9-1.56,5.1-.29.32-.25.86.12,1.09,1.83,1.19,2.59,3.24,2.59,6.07v9.46c0,4.01-2.72,7.96-8.96,7.96ZM328.37,35.18v-10.18h-19.28v10.18h19.28ZM329.38,53.82v-10.68h-20.29v10.68h20.29Z"></path><path class="cls-1" d="M347.62,16.11h36.69c.42,0,.76.34.76.76v7.36c0,.42-.34.76-.76.76h-25.79c-.42,0-.76.34-.76.76v8.23c0,.42.34.76.76.76h17.98c.42,0,.76.34.76.76v7.22c0,.42-.34.76-.76.76h-17.98c-.42,0-.76.34-.76.76v8.8c0,.42.34.76.76.76h25.79c.42,0,.76.34.76.76v7.37c0,.42-.34.76-.76.76h-36.69c-.42,0-.76-.34-.76-.76V16.87c0-.42.34-.76.76-.76Z"></path><path class="cls-1" d="M391.85,16.11h9.37c.42,0,.76.34.76.76v36.37h24.35c.42,0,.76.34.76.76v7.94c0,.42-.34.76-.76.76h-34.49c-.42,0-.76-.34-.76-.76V16.87c0-.42.34-.76.76-.76Z"></path><path class="cls-1" d="M433.73,16.11h9.37c.42,0,.76.34.76.76v36.37h24.35c.42,0,.76.34.76.76v7.94c0,.42-.34.76-.76.76h-34.49c-.42,0-.76-.34-.76-.76V16.87c0-.42.34-.76.76-.76Z"></path><path class="cls-1" d="M505.62,53.68h-18.54c-.33,0-.62.21-.72.53l-2.6,7.98c-.1.31-.39.53-.72.53h-9.57c-.52,0-.89-.51-.72-1.01l15.33-45.07c.11-.31.4-.52.72-.52h15.25c.33,0,.62.21.72.52l15.19,45.07c.17.49-.2,1.01-.72,1.01h-9.57c-.33,0-.62-.21-.72-.53l-2.6-7.98c-.1-.31-.39-.53-.72-.53ZM489.33,45.07h14.05l-6.52-20.14h-1l-6.52,20.14Z"></path></g></g></g></svg>